<?xml version="1.0" encoding="UTF-8"?>
<svg version="1.1" xmlns="http://www.w3.org/2000/svg" width="32" height="32">
<path d="M0 0 C4.8846525 2.26787438 7.73212562 5.1153475 10 10 C10.75381535 15.5997712 10.77303575 20.33499991 8.375 25.5 C3.80134327 30.3143755 0.6912538 32.25156236 -6 32.5 C-12.6912538 32.25156236 -15.80134327 30.3143755 -20.375 25.5 C-22.77303575 20.33499991 -22.75381535 15.5997712 -22 10 C-17.52212837 0.3553534 -9.85292056 -1.32635469 0 0 Z " fill="#233E5D" transform="translate(22,0)"/>
<path d="M0 0 C4.8846525 2.26787438 7.73212562 5.1153475 10 10 C10.31903055 14.02390144 10.23456961 17.97322174 10 22 C5.36043414 20.50707039 5.36043414 20.50707039 3.7421875 18.23046875 C3.45601562 17.55628906 3.16984375 16.88210937 2.875 16.1875 C2.55015625 15.47851562 2.2253125 14.76953125 1.890625 14.0390625 C1.59671875 13.36617187 1.3028125 12.69328125 1 12 C-0.22598645 9.09075658 -0.22598645 9.09075658 -2 7 C-4.89706707 5.75322994 -4.89706707 5.75322994 -8 6 C-11.45202323 8.49312789 -12.49222414 11.13632436 -14 15 C-15.875 17.8125 -15.875 17.8125 -18 20 C-19.32 20 -20.64 20 -22 20 C-22.35261421 15.04381139 -22.5637327 11.17082946 -20.375 6.625 C-14.26782551 -0.12503496 -8.86908671 -1.19391552 0 0 Z " fill="#97C0D4" transform="translate(22,0)"/>
<path d="M0 0 C1.18306728 2.36613456 1.13354608 3.86780736 1.125 6.5 C1.12757812 7.2940625 1.13015625 8.088125 1.1328125 8.90625 C1 11 1 11 0 13 C2.64 13 5.28 13 8 13 C8 12.34 8 11.68 8 11 C8.99 11 9.98 11 11 11 C10.25 12.9375 10.25 12.9375 9 15 C6.04680182 16.23843794 5.12561472 16.04187157 2 15 C1.67 16.32 1.34 17.64 1 19 C0.34 19 -0.32 19 -1 19 C-1 19.66 -1 20.32 -1 21 C-4.08914085 20.66902062 -5.0026931 19.99715301 -7.1875 17.6875 C-8.79407709 15.30533398 -9.58574686 13.79620867 -10 11 C-9.4225 10.938125 -8.845 10.87625 -8.25 10.8125 C-5.0321739 9.65050724 -3.90513846 7.79420307 -2 5 C-0.75983331 2.3205355 -0.75983331 2.3205355 0 0 Z " fill="#27191C" transform="translate(10,9)"/>
<path d="M0 0 C2.375 1.8125 2.375 1.8125 4 4 C3.75 6.25 3.75 6.25 3 8 C-2.75 9.125 -2.75 9.125 -5 8 C-5 7.01 -5 6.02 -5 5 C-3.68 5 -2.36 5 -1 5 C-1 4.34 -1 3.68 -1 3 C-2.98 3.33 -4.96 3.66 -7 4 C-7 6.64 -7 9.28 -7 12 C-7.99 12.495 -7.99 12.495 -9 13 C-9.02696365 11.20841511 -9.04637917 9.41671527 -9.0625 7.625 C-9.07410156 6.62726562 -9.08570313 5.62953125 -9.09765625 4.6015625 C-9 2 -9 2 -8 0 C-4.61786861 -1.12737713 -3.35228621 -1.06292002 0 0 Z " fill="#A18E8D" transform="translate(19,9)"/>
<path d="M0 0 C2.34234267 0.93693707 3.72522277 1.58020146 5.125 3.71875 C6.20194057 6.52648792 6.1963943 8.75143928 6.125 11.75 C6.10695313 12.73484375 6.08890625 13.7196875 6.0703125 14.734375 C6.03550781 15.85585938 6.03550781 15.85585938 6 17 C3.29251677 14.59334824 1.15570064 11.98206998 -0.875 9 C-1.55175781 8.01 -1.55175781 8.01 -2.2421875 7 C-3 5 -3 5 -2.1953125 2.8125 C-1 1 -1 1 0 0 Z " fill="#0F4970" transform="translate(26,4)"/>
<path d="M0 0 C1.9375 0.8125 1.9375 0.8125 4 2 C4.33 2.99 4.66 3.98 5 5 C3.3828125 7.48046875 3.3828125 7.48046875 1.125 10.1875 C0.38507812 11.08855469 -0.35484375 11.98960938 -1.1171875 12.91796875 C-2.04917969 13.94857422 -2.04917969 13.94857422 -3 15 C-3.33 15 -3.66 15 -4 15 C-4.51211281 8.59858988 -4.11888494 5.01989102 0 0 Z " fill="#333153" transform="translate(4,4)"/>
<path d="M0 0 C1.17635297 2.35270593 1.13359359 3.820752 1.125 6.4375 C1.12757812 7.21996094 1.13015625 8.00242187 1.1328125 8.80859375 C1 11 1 11 0 14 C-1.134375 14.12375 -2.26875 14.2475 -3.4375 14.375 C-5.2009375 14.684375 -5.2009375 14.684375 -7 15 C-7.33 15.66 -7.66 16.32 -8 17 C-8.66 15.02 -9.32 13.04 -10 11 C-9.4225 10.938125 -8.845 10.87625 -8.25 10.8125 C-5.0321739 9.65050724 -3.90513846 7.79420307 -2 5 C-0.75983331 2.3205355 -0.75983331 2.3205355 0 0 Z " fill="#194B77" transform="translate(10,9)"/>
<path d="M0 0 C0.66 0.33 1.32 0.66 2 1 C2.33 1.99 2.66 2.98 3 4 C5.50447516 5.21869929 5.50447516 5.21869929 8 6 C3.69230769 11.84615385 3.69230769 11.84615385 0 13 C-1.32 12.67 -2.64 12.34 -4 12 C-2.68 8.04 -1.36 4.08 0 0 Z " fill="#061623" transform="translate(22,19)"/>
<path d="M0 0 C2.64 0.33 5.28 0.66 8 1 C7.125 6.875 7.125 6.875 6 8 C0.26388889 8.27314815 0.26388889 8.27314815 -2 8 C-2.66 7.34 -3.32 6.68 -4 6 C-3.525625 5.566875 -3.05125 5.13375 -2.5625 4.6875 C-0.76313043 2.97690387 -0.76313043 2.97690387 0 0 Z " fill="#A96322" transform="translate(12,24)"/>
<path d="M0 0 C0 0.66 0 1.32 0 2 C-1.32 2 -2.64 2 -4 2 C-4 2.99 -4 3.98 -4 5 C0.14093698 5.20970559 0.14093698 5.20970559 4 4 C4.36923077 10.52307692 4.36923077 10.52307692 2.5 12.9375 C2.005 13.288125 1.51 13.63875 1 14 C0.34 13.67 -0.32 13.34 -1 13 C0.32 11.35 1.64 9.7 3 8 C2.01 8 1.02 8 0 8 C0 8.66 0 9.32 0 10 C-2.31 10 -4.62 10 -7 10 C-6.67 7.03 -6.34 4.06 -6 1 C-3 0 -3 0 0 0 Z " fill="#5B3F41" transform="translate(18,12)"/>
<path d="M0 0 C0.99 0.99 1.98 1.98 3 3 C4.98 2.34 6.96 1.68 9 1 C8.195625 1.8353125 8.195625 1.8353125 7.375 2.6875 C6.694375 3.8321875 6.694375 3.8321875 6 5 C7.16808327 8.75818097 9.07534399 11.97066954 11.125 15.3125 C11.66382813 16.19550781 12.20265625 17.07851563 12.7578125 17.98828125 C13.16773438 18.65214844 13.57765625 19.31601562 14 20 C9.34556575 18.48424674 9.34556575 18.48424674 7.8125 16.3359375 C7.544375 15.68882813 7.27625 15.04171875 7 14.375 C5.29711914 10.55049708 3.26049662 7.15291959 0.953125 3.6640625 C0 2 0 2 0 0 Z " fill="#A2C3D5" transform="translate(18,2)"/>
<path d="M0 0 C-0.99 0 -1.98 0 -3 0 C-3 1.32 -3 2.64 -3 4 C-3.99 4 -4.98 4 -6 4 C-6 6.64 -6 9.28 -6 12 C-6.99 12.495 -6.99 12.495 -8 13 C-8.02696365 11.20841511 -8.04637917 9.41671527 -8.0625 7.625 C-8.07410156 6.62726562 -8.08570313 5.62953125 -8.09765625 4.6015625 C-8 2 -8 2 -7 0 C-3.86650268 -1.04449911 -3.01031744 -0.93423645 0 0 Z " fill="#A5726C" transform="translate(18,9)"/>
<path d="M0 0 C0.66 0 1.32 0 2 0 C1.42647107 3.87132028 -0.48704352 6.08172796 -3 9 C-4.32 8.67 -5.64 8.34 -7 8 C-5.88200014 6.66079162 -4.75538103 5.32877444 -3.625 4 C-2.68527344 2.88625 -2.68527344 2.88625 -1.7265625 1.75 C-1.15679687 1.1725 -0.58703125 0.595 0 0 Z " fill="#57A4C9" transform="translate(7,11)"/>
<path d="M0 0 C-0.33 1.98 -0.66 3.96 -1 6 C-3.86724686 5.42655063 -4.8614515 5.1385485 -7 3 C-7 2.01 -7 1.02 -7 0 C-2.25 -1.125 -2.25 -1.125 0 0 Z " fill="#0F1625" transform="translate(10,24)"/>
<path d="M0 0 C2.31 0.66 4.62 1.32 7 2 C7.33 3.98 7.66 5.96 8 8 C7.484375 7.34 6.96875 6.68 6.4375 6 C3.20004245 3.34362457 1.07447719 3.68657868 -3 4 C-2.01 2.68 -1.02 1.36 0 0 Z " fill="#233B54" transform="translate(14,5)"/>
<path d="M0 0 C0.33 1.32 0.66 2.64 1 4 C-0.32 4.99 -1.64 5.98 -3 7 C-4.32 5.35 -5.64 3.7 -7 2 C-4.35261084 0.5393715 -3.10551666 0 0 0 Z " fill="#275A8D" transform="translate(13,0)"/>
<path d="M0 0 C1.32 0.33 2.64 0.66 4 1 C1.36 4.3 -1.28 7.6 -4 11 C-4.33 9.68 -4.66 8.36 -5 7 C-4.01 6.34 -3.02 5.68 -2 5 C-0.79549696 2.44816596 -0.79549696 2.44816596 0 0 Z " fill="#126395" transform="translate(5,8)"/>
<path d="M0 0 C5.75 0.75 5.75 0.75 8 3 C7.01 3.99 6.02 4.98 5 6 C4.01 5.67 3.02 5.34 2 5 C0.8125 2.4375 0.8125 2.4375 0 0 Z " fill="#2D5081" transform="translate(18,0)"/>
<path d="M0 0 C0.36923077 6.52307692 0.36923077 6.52307692 -1.5 8.9375 C-1.995 9.288125 -2.49 9.63875 -3 10 C-3.66 9.67 -4.32 9.34 -5 9 C-3.68 7.35 -2.36 5.7 -1 4 C-2.65 4.33 -4.3 4.66 -6 5 C-6.33 4.34 -6.66 3.68 -7 3 C-1.125 0 -1.125 0 0 0 Z " fill="#7F6962" transform="translate(22,16)"/>
<path d="M0 0 C0.99 1.485 0.99 1.485 2 3 C4.55183404 4.20450304 4.55183404 4.20450304 7 5 C5.68 6.32 4.36 7.64 3 9 C2.34 8.67 1.68 8.34 1 8 C0.40644386 5.35139573 0.25790731 2.70802678 0 0 Z " fill="#0C293B" transform="translate(23,20)"/>
<path d="M0 0 C0.66 0.66 1.32 1.32 2 2 C1.67 2.99 1.34 3.98 1 5 C-0.98 5.33 -2.96 5.66 -5 6 C-5 5.34 -5 4.68 -5 4 C-3.37373596 2.61767557 -1.7074998 1.28062485 0 0 Z " fill="#663153" transform="translate(9,18)"/>
<path d="M0 0 C0.99 0.33 1.98 0.66 3 1 C2.67 2.32 2.34 3.64 2 5 C0.35 5 -1.3 5 -3 5 C-1.125 1.125 -1.125 1.125 0 0 Z " fill="#643C62" transform="translate(26,4)"/>
<path d="M0 0 C1.65 0 3.3 0 5 0 C4.67 0.99 4.34 1.98 4 3 C2.02 3.33 0.04 3.66 -2 4 C-1.34 2.68 -0.68 1.36 0 0 Z " fill="#D07E28" transform="translate(12,28)"/>
<path d="M0 0 C3.48331435 3.01887244 4.79157144 5.56909529 6 10 C5.34 10 4.68 10 4 10 C1.04696841 6.92884715 0.47348414 4.1666604 0 0 Z " fill="#12679A" transform="translate(22,11)"/>
<path d="M0 0 C0.33 0 0.66 0 1 0 C1 2.31 1 4.62 1 7 C-0.98 7.99 -0.98 7.99 -3 9 C-2.01 6.03 -1.02 3.06 0 0 Z " fill="#312827" transform="translate(21,23)"/>
</svg>
